<?xml version="1.0" standalone="no"?>
<!DOCTYPE svg PUBLIC "-//W3C//DTD SVG 20010904//EN"
 "http://www.w3.org/TR/2001/REC-SVG-20010904/DTD/svg10.dtd">
<svg version="1.0" xmlns="http://www.w3.org/2000/svg"
 width="512.000000pt" height="512.000000pt" viewBox="0 0 512.000000 512.000000"
 preserveAspectRatio="xMidYMid meet">
<metadata>
Created by potrace 1.16, written by Peter Selinger 2001-2019
</metadata>
<g transform="translate(0.000000,512.000000) scale(0.100000,-0.100000)"
fill="#000000" stroke="none">
<path d="M283 5101 c-104 -38 -198 -123 -249 -226 l-29 -60 0 -1825 0 -1825
31 -66 c55 -116 142 -192 262 -229 61 -19 95 -20 778 -20 l714 0 0 -164 0
-164 -162 -4 c-159 -3 -164 -4 -217 -33 -89 -49 -132 -124 -132 -230 0 -35 7
-80 16 -101 21 -51 80 -112 130 -135 38 -18 105 -19 1774 -19 1731 0 1735 0
1777 21 49 23 110 86 130 135 20 48 18 160 -5 209 -34 74 -107 128 -203 149
l-28 6 0 183 0 183 33 16 c64 31 135 106 174 186 l38 76 3 1805 c2 1648 1
1810 -14 1856 -42 128 -143 232 -271 276 -55 19 -104 19 -2277 19 -2140 -1
-2223 -1 -2273 -19z m4501 -175 c49 -20 112 -81 135 -130 21 -42 21 -48 21
-1564 l0 -1522 -74 0 -74 0 -55 83 c-31 46 -78 104 -106 130 -53 50 -171 130
-208 141 -13 4 -23 11 -23 15 0 3 30 22 68 40 90 45 187 111 256 174 51 48 56
57 56 94 0 34 -6 46 -32 68 -46 39 -80 30 -170 -45 -89 -75 -180 -131 -270
-164 -38 -14 -68 -25 -68 -23 0 1 7 20 15 42 17 49 21 302 4 338 -12 26 -47
47 -77 47 -9 0 -71 -18 -137 -40 l-120 -40 -120 40 c-65 22 -127 40 -137 40
-34 0 -68 -24 -80 -57 -11 -29 -16 -33 -50 -33 l-38 0 0 614 c0 605 0 614 -21
640 -16 20 -29 26 -59 26 -52 0 -68 -8 -85 -41 -13 -24 -15 -122 -15 -634 l0
-605 -165 0 -165 0 0 445 0 446 -25 24 c-16 17 -35 25 -59 25 -98 0 -96 9 -96
-505 l0 -435 -165 0 -165 0 0 350 c0 418 0 420 -96 420 -24 0 -43 -8 -59 -25
l-25 -24 0 -361 0 -360 -165 0 -165 0 0 439 0 439 -26 31 c-34 41 -92 44 -129
6 l-25 -24 0 -446 0 -445 -165 0 -164 0 -3 361 -3 361 -28 24 c-37 32 -87 32
-124 0 l-28 -24 -3 -361 -3 -361 -164 0 -165 0 0 190 c0 189 0 191 -25 215
-32 33 -84 33 -122 1 l-28 -24 -3 -191 -3 -191 -104 0 c-100 0 -104 -1 -124
-26 -30 -38 -28 -94 5 -125 l26 -24 1509 -3 1509 -2 0 -33 c0 -50 17 -97 54
-157 l35 -55 -79 -17 c-84 -18 -163 -48 -222 -85 l-38 -23 0 80 c0 73 -3 83
-25 105 l-24 25 -721 0 -721 0 -24 -25 -25 -24 0 -231 0 -230 -805 0 -805 0 0
1520 c0 1282 2 1526 14 1554 20 48 80 111 129 135 l42 21 2193 0 c1859 0 2198
-2 2226 -14z m-926 -2526 l68 -21 68 21 c38 12 75 24 82 27 11 4 14 -6 14 -45
0 -44 -7 -59 -64 -143 -58 -87 -66 -94 -99 -97 -35 -3 -37 -1 -101 95 -59 87
-66 103 -66 146 0 40 3 48 15 43 9 -3 46 -15 83 -26z m-708 -1290 l0 -930
-590 0 -590 0 0 930 0 930 590 0 590 0 0 -930z m1058 834 c235 -47 419 -231
466 -466 13 -64 16 -160 16 -549 0 -460 1 -472 21 -509 26 -45 68 -71 133 -81
87 -14 125 -82 74 -136 l-21 -23 -784 0 -783 0 2 802 3 803 67 50 c71 53 156
92 247 111 87 19 464 18 559 -2z m-2418 -664 l0 -251 -717 3 c-714 3 -718 3
-758 25 -52 28 -89 68 -114 123 -18 39 -21 66 -21 198 l0 152 805 0 805 0 0
-250z m3150 98 c0 -140 -2 -157 -24 -204 -13 -28 -28 -54 -34 -58 -6 -4 -11
64 -14 187 -3 105 -8 200 -13 210 -6 15 -1 17 39 17 l46 0 0 -152z m-3150
-1118 l0 -80 -142 0 c-132 0 -143 2 -165 22 -26 24 -31 74 -10 100 25 32 53
37 185 38 l132 0 0 -80z"/>
<path d="M470 4687 c-42 -21 -50 -51 -50 -199 l0 -138 90 0 90 0 0 85 0 85 85
0 85 0 0 90 0 90 -137 0 c-91 0 -147 -5 -163 -13z"/>
<path d="M930 4610 l0 -90 90 0 90 0 0 90 0 90 -90 0 -90 0 0 -90z"/>
<path d="M1277 4693 c-4 -3 -7 -44 -7 -90 l0 -83 95 0 95 0 0 90 0 90 -88 0
c-49 0 -92 -3 -95 -7z"/>
<path d="M3522 4588 c-30 -33 -36 -70 -18 -106 20 -38 26 -42 81 -50 l43 -7
-559 -395 c-308 -217 -570 -401 -583 -409 -20 -12 -53 2 -426 189 -398 199
-442 217 -483 194 -44 -25 -799 -709 -808 -732 -12 -30 -4 -70 18 -94 21 -24
75 -33 104 -18 12 7 184 156 380 331 197 176 363 319 369 319 5 0 190 -90 410
-200 241 -120 411 -200 429 -200 15 0 45 11 66 25 33 23 629 443 1074 758 141
100 153 106 147 80 -3 -15 -9 -49 -12 -75 -6 -43 -4 -49 24 -77 37 -38 80 -41
117 -8 22 18 33 51 70 197 53 209 56 250 19 279 -25 20 -39 21 -234 21 -201 0
-207 -1 -228 -22z"/>
<path d="M420 4100 l0 -90 90 0 90 0 0 90 0 90 -90 0 -90 0 0 -90z"/>
<path d="M3830 3840 l0 -90 95 0 95 0 0 90 0 90 -95 0 -95 0 0 -90z"/>
<path d="M3830 3500 l0 -90 95 0 95 0 0 90 0 90 -95 0 -95 0 0 -90z"/>
<path d="M3830 3160 l0 -90 95 0 95 0 0 90 0 90 -95 0 -95 0 0 -90z"/>
<path d="M3837 2904 c-4 -4 -7 -45 -7 -91 l0 -83 95 0 96 0 -3 88 -3 87 -85 3
c-47 1 -89 0 -93 -4z"/>
<path d="M2155 1855 c-25 -24 -25 -24 -25 -232 1 -148 4 -213 13 -224 29 -38
46 -39 466 -39 l410 0 28 24 28 24 0 212 0 212 -28 24 -28 24 -420 0 -420 0
-24 -25z m745 -235 l0 -80 -295 0 -295 0 0 80 0 80 295 0 295 0 0 -80z"/>
<path d="M2130 1110 l0 -90 90 0 90 0 0 90 0 90 -90 0 -90 0 0 -90z"/>
<path d="M2470 1110 l0 -90 90 0 90 0 0 90 0 90 -90 0 -90 0 0 -90z"/>
<path d="M2810 1110 l0 -90 90 0 90 0 0 90 0 90 -90 0 -90 0 0 -90z"/>
<path d="M2130 770 l0 -90 90 0 90 0 0 90 0 90 -90 0 -90 0 0 -90z"/>
<path d="M2470 770 l0 -90 90 0 90 0 0 90 0 90 -90 0 -90 0 0 -90z"/>
<path d="M2810 770 l0 -90 90 0 90 0 0 90 0 90 -90 0 -90 0 0 -90z"/>
<path d="M2130 430 l0 -90 90 0 90 0 0 90 0 90 -90 0 -90 0 0 -90z"/>
<path d="M2470 430 l0 -90 90 0 90 0 0 90 0 90 -90 0 -90 0 0 -90z"/>
<path d="M2810 430 l0 -90 90 0 90 0 0 90 0 90 -90 0 -90 0 0 -90z"/>
<path d="M3830 1567 l0 -62 -47 -25 c-119 -63 -155 -226 -73 -338 23 -32 56
-54 160 -107 129 -65 131 -67 128 -98 -2 -26 -9 -34 -40 -45 -35 -14 -41 -13
-104 17 -80 38 -132 40 -161 9 -30 -33 -36 -62 -20 -100 11 -26 29 -40 86 -67
l71 -35 0 -63 0 -63 95 0 95 0 0 63 0 63 45 22 c113 55 154 215 85 327 -26 42
-58 64 -188 129 -105 53 -112 58 -112 86 0 57 73 69 158 26 65 -33 121 -34
149 -3 30 32 36 61 20 99 -11 26 -29 40 -86 67 l-71 35 0 63 0 63 -95 0 -95 0
0 -63z"/>
<path d="M510 1280 l0 -90 300 0 300 0 0 90 0 90 -300 0 -300 0 0 -90z"/>
<path d="M1270 1280 l0 -90 95 0 95 0 0 90 0 90 -95 0 -95 0 0 -90z"/>
</g>
</svg>
