<?xml version="1.0" standalone="no"?>
<!DOCTYPE svg PUBLIC "-//W3C//DTD SVG 20010904//EN"
 "http://www.w3.org/TR/2001/REC-SVG-20010904/DTD/svg10.dtd">
<svg version="1.0" xmlns="http://www.w3.org/2000/svg"
 width="512.000000pt" height="512.000000pt" viewBox="0 0 512.000000 512.000000"
 preserveAspectRatio="xMidYMid meet">
<metadata>
Created by potrace 1.16, written by Peter Selinger 2001-2019
</metadata>
<g transform="translate(0.000000,512.000000) scale(0.100000,-0.100000)"
fill="#000000" stroke="none">
<path d="M1864 5026 c-19 -14 -19 -41 -24 -1204 l-5 -1189 -100 43 -100 43
-548 1 -548 0 -76 -25 c-234 -79 -383 -283 -383 -527 0 -52 7 -120 15 -152 37
-142 143 -280 263 -344 35 -19 59 -38 57 -45 -2 -7 -61 -224 -130 -483 l-125
-471 0 -171 c0 -207 13 -254 90 -332 87 -86 109 -90 470 -90 361 0 383 4 470
90 78 79 90 125 90 336 l0 174 -60 57 c-123 115 -145 231 -84 446 4 14 17 17
74 17 94 0 165 28 236 92 67 62 101 125 120 225 8 41 14 77 14 79 0 2 12 4 28
4 15 1 72 20 127 44 l100 43 5 -789 c5 -767 6 -790 24 -804 17 -12 248 -14
1578 -14 1545 0 1558 0 1578 20 20 20 20 33 20 2460 0 2427 0 2440 -20 2460
-20 20 -33 20 -1578 20 -1330 0 -1561 -2 -1578 -14z m3016 -2466 l0 -2320 -80
0 -80 0 0 2220 c0 2207 0 2220 -20 2240 -20 20 -33 20 -1260 20 -1227 0 -1240
0 -1260 -20 -20 -20 -20 -33 -20 -1110 0 -612 -4 -1090 -9 -1090 -4 0 -40 14
-80 31 l-71 32 0 1158 0 1159 1440 0 1440 0 0 -2320z m-320 -160 l0 -2160
-1120 0 -1120 0 0 800 0 800 74 0 c84 0 141 17 199 60 47 35 103 110 112 151
l7 29 244 0 244 0 0 80 0 80 -244 0 -244 0 -7 29 c-9 41 -65 116 -112 151 -58
43 -115 60 -199 60 l-74 0 0 1040 0 1040 1120 0 1120 0 0 -2160z m-3680 -40
l0 -200 80 0 80 0 0 200 0 200 80 0 80 0 0 -200 0 -200 80 0 80 0 0 200 0 200
80 0 80 0 0 -400 0 -400 -427 0 c-455 0 -536 6 -620 45 -70 32 -157 120 -191
192 -24 52 -27 70 -27 163 0 93 3 112 27 162 36 77 107 151 181 188 102 51 97
59 97 -160 l0 -190 80 0 80 0 0 200 0 200 80 0 80 0 0 -200z m1000 66 l195
-83 0 -183 0 -183 -195 -83 c-107 -46 -196 -84 -197 -84 -2 0 -3 158 -3 350 0
193 1 350 3 350 1 0 90 -38 197 -84z m591 -132 c106 -62 106 -206 0 -268 -25
-14 -58 -20 -132 -24 l-99 -5 0 163 0 163 99 -5 c74 -4 107 -10 132 -24z
m-311 -1264 l0 -790 -80 0 -80 0 0 759 0 758 68 31 c37 17 73 31 80 31 9 1 12
-163 12 -789z m-1162 318 c-33 -139 -62 -287 -65 -328 -6 -83 13 -183 47 -250
11 -21 20 -42 20 -45 0 -3 -147 -5 -326 -5 -257 0 -325 3 -322 13 3 6 56 204
119 440 l114 427 236 0 236 0 -59 -252z m401 210 c-11 -59 -18 -78 -46 -116
-28 -37 -81 -67 -136 -75 -36 -6 -39 -5 -34 16 3 12 15 66 27 120 l22 97 88 0
87 0 -8 -42z m-281 -1097 c-7 -136 -40 -190 -134 -211 -51 -12 -477 -12 -528
0 -94 21 -127 75 -134 211 l-5 99 403 0 403 0 -5 -99z"/>
<path d="M3240 4219 c-286 -74 -507 -297 -580 -583 -19 -73 -20 -111 -20 -518
0 -425 1 -439 20 -458 20 -20 33 -20 780 -20 747 0 760 0 780 20 19 19 20 33
20 458 0 407 -1 445 -20 518 -73 288 -296 511 -584 584 -107 27 -290 27 -396
-1z m120 -424 l0 -275 -275 0 -275 0 6 28 c27 121 64 201 130 286 81 102 216
190 342 221 31 7 60 14 65 14 4 1 7 -123 7 -274z m255 253 c156 -39 310 -169
390 -328 30 -60 41 -91 59 -172 l6 -28 -275 0 -275 0 0 275 0 275 28 -6 c15
-3 45 -10 67 -16z m-255 -968 l0 -280 -280 0 -280 0 0 280 0 280 280 0 280 0
0 -280z m720 0 l0 -280 -280 0 -280 0 0 280 0 280 280 0 280 0 0 -280z"/>
<path d="M2660 1740 c-20 -20 -20 -33 -20 -620 0 -587 0 -600 20 -620 20 -20
33 -20 780 -20 747 0 760 0 780 20 20 20 20 33 20 620 0 587 0 600 -20 620
-20 20 -33 20 -780 20 -747 0 -760 0 -780 -20z m700 -340 l0 -200 -280 0 -280
0 0 200 0 200 280 0 280 0 0 -200z m720 0 l0 -200 -280 0 -280 0 0 200 0 200
280 0 280 0 0 -200z m-720 -560 l0 -200 -280 0 -280 0 0 200 0 200 280 0 280
0 0 -200z m720 0 l0 -200 -280 0 -280 0 0 200 0 200 280 0 280 0 0 -200z"/>
</g>
</svg>
