<?xml version="1.0" standalone="no"?>
<!DOCTYPE svg PUBLIC "-//W3C//DTD SVG 20010904//EN"
 "http://www.w3.org/TR/2001/REC-SVG-20010904/DTD/svg10.dtd">
<svg version="1.0" xmlns="http://www.w3.org/2000/svg"
 width="512.000000pt" height="512.000000pt" viewBox="0 0 512.000000 512.000000"
 preserveAspectRatio="xMidYMid meet">
<metadata>
Created by potrace 1.16, written by Peter Selinger 2001-2019
</metadata>
<g transform="translate(0.000000,512.000000) scale(0.100000,-0.100000)"
fill="#000000" stroke="none">
<path d="M380 5105 c-97 -31 -194 -133 -225 -238 -22 -73 -22 -413 0 -444 21
-30 66 -38 104 -18 17 8 32 17 33 18 0 1 4 93 7 204 l6 201 30 44 c17 24 51
54 75 68 l45 25 1555 3 c855 2 1583 0 1618 -3 108 -11 186 -82 199 -183 5 -35
3 -38 -29 -50 -18 -6 -76 -44 -128 -83 -118 -88 -130 -93 -260 -113 -128 -19
-159 -28 -214 -60 -81 -47 -113 -116 -140 -301 -19 -123 -18 -122 -101 -235
-97 -132 -110 -161 -110 -255 0 -94 13 -123 110 -255 82 -112 82 -112 100
-232 20 -136 38 -196 74 -245 42 -58 130 -99 251 -116 l95 -13 5 -585 c6 -654
2 -624 77 -656 54 -22 91 -10 184 63 l84 65 3 -683 c2 -495 0 -694 -9 -723
-16 -57 -43 -91 -97 -122 l-47 -28 -1610 0 -1610 0 -45 25 c-24 14 -58 45 -75
68 l-30 44 -5 1943 c-5 1893 -5 1943 -24 1964 -27 30 -85 28 -114 -2 l-22 -24
2 -1954 3 -1954 33 -67 c36 -74 95 -132 170 -170 l47 -23 1670 0 1670 0 63 34
c74 40 124 93 161 171 l26 55 5 723 5 723 83 -65 c92 -73 130 -85 185 -63 73
31 72 20 75 497 2 234 0 440 -3 458 -13 68 -89 96 -133 49 -21 -23 -22 -29
-24 -416 l-3 -393 -96 75 c-114 89 -128 97 -169 97 -41 0 -58 -10 -160 -90
-47 -37 -91 -70 -97 -74 -10 -6 -13 92 -13 474 l0 481 46 -35 c83 -63 147 -89
222 -89 86 0 127 19 260 116 110 81 118 84 287 107 140 19 230 77 270 174 8
19 24 92 35 161 11 70 25 137 32 149 6 11 39 59 73 106 97 132 110 161 110
255 0 94 -19 137 -108 250 -76 99 -84 118 -107 262 -22 137 -44 196 -92 244
-52 51 -120 77 -248 94 -129 17 -147 24 -252 102 -57 42 -119 82 -139 90 -35
14 -37 17 -43 76 -12 119 -80 219 -188 278 l-63 34 -1655 2 c-1404 1 -1662 0
-1700 -12z m3591 -531 c14 -7 59 -38 100 -69 119 -91 149 -103 327 -129 57 -9
116 -23 132 -33 37 -22 55 -67 70 -174 19 -145 43 -203 130 -322 114 -156 114
-171 5 -318 -87 -116 -112 -174 -130 -302 -18 -129 -36 -178 -75 -200 -16 -10
-75 -24 -132 -33 -177 -26 -215 -41 -335 -136 -34 -26 -81 -57 -106 -68 -59
-26 -85 -17 -207 73 -123 91 -151 102 -304 127 -70 11 -140 27 -155 35 -40 20
-57 64 -76 195 -20 135 -42 191 -109 280 -105 138 -122 180 -95 233 7 12 40
61 75 108 86 117 109 172 129 309 27 186 41 201 207 226 179 26 211 39 326
128 117 92 156 104 223 70z"/>
<path d="M3857 4249 c-9 -6 -53 -64 -97 -129 l-80 -119 -72 -21 c-40 -12 -103
-30 -140 -41 -71 -21 -94 -37 -109 -76 -15 -41 0 -73 92 -191 l87 -112 -5
-149 -6 -150 31 -30 c42 -43 75 -40 226 15 l126 46 126 -46 c151 -55 184 -58
226 -15 l31 30 -7 151 -7 150 39 46 c116 141 142 182 142 226 0 57 -24 81
-108 105 -37 11 -100 29 -140 41 l-72 21 -80 119 c-44 66 -89 124 -99 130 -25
13 -81 13 -104 -1z m120 -299 c63 -93 52 -86 225 -135 l58 -16 -71 -92 -72
-92 6 -112 c3 -62 3 -113 -1 -113 -3 0 -52 16 -109 36 l-103 37 -103 -37 c-57
-20 -106 -36 -109 -36 -3 0 -5 53 -5 118 l2 117 -68 87 -67 86 55 16 c30 9 80
23 110 31 53 15 57 19 116 106 33 50 64 89 69 87 5 -2 35 -41 67 -88z"/>
<path d="M1928 4637 c-111 -47 -180 -125 -213 -240 -14 -48 -16 -91 -13 -225
4 -183 15 -224 79 -304 27 -35 30 -43 27 -105 l-3 -66 -50 -17 c-124 -42 -211
-114 -259 -212 -31 -64 -67 -231 -68 -314 -1 -103 50 -189 138 -234 l49 -25
450 0 450 0 53 29 c122 68 152 164 116 369 -37 214 -112 311 -295 383 l-69 27
0 68 c0 63 3 73 35 114 55 72 65 124 65 321 0 206 -12 252 -90 337 -72 79
-142 110 -254 114 -78 3 -99 0 -148 -20z m210 -152 c43 -19 79 -50 98 -87 21
-40 18 -45 -36 -63 -50 -16 -109 -16 -188 0 -62 14 -107 -45 -82 -109 7 -18
25 -34 56 -48 40 -17 61 -19 138 -15 50 3 101 8 114 12 21 7 22 5 22 -59 0
-74 -19 -123 -67 -168 -81 -77 -189 -75 -269 6 -57 56 -66 97 -62 266 3 132 4
138 33 185 52 84 152 117 243 80z m22 -801 c0 -49 -2 -53 -31 -63 -41 -14
-101 -14 -134 1 -22 10 -25 17 -25 62 l0 51 95 0 95 1 0 -52z m-299 -175 c107
-76 285 -77 394 -3 45 30 75 28 141 -11 66 -39 102 -100 125 -208 28 -136 26
-162 -15 -203 l-34 -34 -401 0 c-424 0 -436 1 -467 48 -20 31 -20 68 1 173 27
134 75 204 167 244 44 19 55 18 89 -6z"/>
<path d="M547 2552 c-24 -26 -22 -94 2 -116 28 -25 88 -23 114 3 27 26 28 83
2 111 -24 27 -95 28 -118 2z"/>
<path d="M821 2544 c-12 -15 -21 -37 -21 -49 0 -12 9 -34 21 -49 l20 -26 1209
0 1209 0 20 26 c27 34 27 64 0 98 l-20 26 -1209 0 -1209 0 -20 -26z"/>
<path d="M552 2150 c-33 -31 -30 -92 4 -119 67 -53 151 8 123 89 -19 52 -86
68 -127 30z"/>
<path d="M833 2155 c-42 -30 -34 -121 12 -139 9 -3 554 -6 1210 -6 1121 0
1194 1 1214 18 12 9 24 34 27 54 5 30 2 41 -19 62 l-26 26 -1198 0 c-1050 0
-1201 -2 -1220 -15z"/>
<path d="M580 1763 c-52 -20 -69 -94 -30 -133 27 -27 90 -27 115 0 25 28 25
85 0 110 -22 21 -62 32 -85 23z"/>
<path d="M854 1760 c-28 -11 -54 -48 -54 -76 0 -12 9 -33 21 -48 l20 -26 1209
0 1209 0 20 26 c28 35 26 67 -3 101 l-24 28 -1189 2 c-657 1 -1198 -2 -1209
-7z"/>
<path d="M550 1340 c-31 -31 -27 -93 6 -119 15 -12 36 -21 48 -21 29 0 65 27
76 56 11 29 -5 81 -30 94 -31 16 -79 11 -100 -10z"/>
<path d="M833 1345 c-45 -32 -36 -113 15 -134 19 -8 369 -11 1219 -9 1324 3
1218 -3 1230 70 4 30 1 41 -20 62 l-26 26 -1198 0 c-1041 0 -1201 -2 -1220
-15z"/>
<path d="M556 939 c-20 -16 -26 -29 -26 -60 0 -50 27 -79 74 -79 77 0 111 86
52 136 -33 29 -65 30 -100 3z"/>
<path d="M843 948 c-28 -13 -46 -58 -37 -92 15 -59 -62 -56 1250 -56 l1203 0
20 26 c34 43 21 102 -26 123 -33 15 -2378 14 -2410 -1z"/>
<path d="M550 530 c-31 -31 -27 -93 6 -119 35 -27 67 -26 100 3 37 31 39 90 5
117 -31 25 -86 24 -111 -1z"/>
<path d="M833 535 c-44 -31 -37 -111 13 -134 35 -16 2372 -16 2407 0 47 21 60
80 26 123 l-20 26 -1203 0 c-1043 0 -1204 -2 -1223 -15z"/>
</g>
</svg>
