<?xml version="1.0" standalone="no"?>
<!DOCTYPE svg PUBLIC "-//W3C//DTD SVG 20010904//EN"
 "http://www.w3.org/TR/2001/REC-SVG-20010904/DTD/svg10.dtd">
<svg version="1.0" xmlns="http://www.w3.org/2000/svg"
 width="512.000000pt" height="512.000000pt" viewBox="0 0 512.000000 512.000000"
 preserveAspectRatio="xMidYMid meet">
<metadata>
Created by potrace 1.16, written by Peter Selinger 2001-2019
</metadata>
<g transform="translate(0.000000,512.000000) scale(0.100000,-0.100000)"
fill="#000000" stroke="none">
<path d="M4800 4791 c-50 -17 -4566 -1758 -4656 -1796 -91 -38 -144 -120 -143
-225 0 -78 27 -139 80 -182 24 -19 212 -94 594 -237 l560 -209 186 -598 c102
-330 200 -645 218 -702 35 -114 73 -167 145 -204 51 -26 149 -27 202 -2 21 10
188 141 373 291 253 206 342 273 362 273 20 0 184 -114 601 -417 315 -229 593
-428 617 -441 54 -31 135 -35 203 -9 56 22 119 89 136 144 33 113 842 4045
842 4093 -1 166 -158 274 -320 221z m106 -214 c4 -10 -813 -3969 -832 -4029
-3 -10 -12 -18 -20 -18 -8 0 -269 186 -582 413 -312 226 -592 425 -623 440
-42 21 -70 28 -116 28 -127 1 -114 9 -552 -349 -156 -128 -289 -232 -296 -232
-7 0 -17 12 -23 28 -6 15 -108 340 -227 722 -160 515 -222 701 -239 718 -14
15 -209 92 -572 227 -302 113 -564 212 -581 220 -34 15 -43 38 -21 48 83 37
4648 1796 4661 1796 10 1 20 -5 23 -12z"/>
<path d="M3835 3897 c-212 -124 -2118 -1306 -2143 -1330 -68 -65 -112 -184
-97 -266 11 -61 236 -854 251 -883 8 -15 30 -39 49 -54 46 -34 123 -38 175 -8
59 33 75 81 110 343 20 155 38 251 52 282 17 42 140 159 915 880 604 562 900
843 909 866 18 42 18 64 -2 113 -32 78 -135 105 -219 57z m-510 -576 c-11 -10
-281 -260 -600 -556 -319 -296 -599 -561 -622 -589 -24 -28 -54 -75 -68 -104
-23 -49 -55 -192 -55 -251 0 -14 -4 -32 -8 -39 -9 -14 -162 516 -162 561 0 15
12 40 28 57 20 23 1477 933 1502 939 2 1 -4 -7 -15 -18z"/>
<path d="M4180 2572 c-31 -32 -56 -123 -45 -171 14 -64 93 -98 154 -66 42 21
64 72 65 153 1 58 -2 66 -27 88 -41 36 -109 34 -147 -4z"/>
<path d="M4077 2100 c-14 -16 -28 -38 -31 -47 -2 -10 -57 -260 -121 -557 -82
-380 -115 -548 -110 -572 6 -35 42 -70 81 -80 36 -9 88 13 107 45 23 40 261
1135 253 1167 -12 48 -50 74 -105 74 -42 0 -53 -4 -74 -30z"/>
</g>
</svg>
