<?xml version="1.0" standalone="no"?>
<!DOCTYPE svg PUBLIC "-//W3C//DTD SVG 20010904//EN"
 "http://www.w3.org/TR/2001/REC-SVG-20010904/DTD/svg10.dtd">
<svg version="1.0" xmlns="http://www.w3.org/2000/svg"
 width="512.000000pt" height="512.000000pt" viewBox="0 0 512.000000 512.000000"
 preserveAspectRatio="xMidYMid meet">
<metadata>
Created by potrace 1.16, written by Peter Selinger 2001-2019
</metadata>
<g transform="translate(0.000000,512.000000) scale(0.100000,-0.100000)"
fill="#000000" stroke="none">
<path d="M2610 5104 c-41 -8 -113 -24 -160 -36 -74 -20 -87 -27 -108 -58 -17
-25 -22 -44 -19 -66 3 -16 64 -135 135 -264 l130 -234 -46 -22 c-59 -27 -115
-85 -144 -149 -35 -78 -32 -184 8 -263 l31 -59 -31 -18 c-64 -37 -193 -145
-268 -223 -274 -288 -449 -681 -465 -1049 l-6 -131 -65 -22 c-185 -60 -308
-139 -547 -348 l-170 -150 -35 29 c-28 23 -44 29 -84 29 l-50 0 -353 -353
-353 -353 0 -54 0 -55 623 -622 622 -623 55 0 54 0 353 353 353 353 0 48 c0
32 -7 57 -20 77 l-21 28 779 3 779 3 84 42 c80 40 116 72 736 653 764 715 713
655 713 855 0 112 -2 125 -27 176 -36 71 -104 138 -178 174 -49 24 -75 30
-151 33 -123 6 -161 -8 -338 -124 -79 -52 -146 -94 -148 -94 -3 0 -8 46 -11
103 -22 351 -202 745 -471 1025 -74 77 -265 232 -286 232 -5 0 6 27 23 61 27
53 31 72 32 138 0 58 -6 88 -23 126 -29 64 -85 122 -144 149 l-46 23 130 232
c71 128 132 247 135 265 7 47 -31 97 -87 114 -171 50 -213 55 -535 58 -236 2
-328 -1 -385 -12z m625 -200 c60 -8 111 -17 113 -18 1 -2 -46 -91 -105 -197
l-107 -194 -166 0 -166 0 -105 188 c-57 104 -105 192 -107 196 -4 11 142 33
263 40 143 8 244 4 380 -15z m-5 -643 c113 -33 150 -83 115 -151 -25 -48 -52
-56 -132 -35 -41 11 -122 20 -204 23 -114 4 -154 1 -247 -18 -123 -24 -141
-21 -168 31 -35 68 5 118 116 148 111 30 112 30 285 26 129 -2 175 -7 235 -24z
m-74 -391 c389 -99 748 -509 871 -994 20 -80 26 -135 30 -266 l5 -165 -238
-156 -239 -156 -45 40 c-25 22 -70 52 -100 66 -51 24 -67 26 -212 29 l-158 4
0 53 0 53 54 31 c97 54 145 142 146 261 0 82 -23 147 -74 207 -33 39 -138 93
-180 93 -50 0 -104 19 -121 43 -43 61 -1 147 72 147 36 0 52 -7 117 -54 16
-11 42 -18 69 -18 34 1 47 7 70 32 60 67 18 159 -99 216 l-54 26 0 78 c0 70
-2 80 -26 104 -21 21 -36 26 -74 26 -38 0 -53 -5 -74 -26 -24 -24 -26 -34 -26
-104 l0 -78 -54 -31 c-97 -54 -145 -142 -146 -262 0 -65 4 -85 31 -137 16 -34
45 -73 62 -88 43 -36 125 -74 162 -74 50 0 103 -19 120 -43 24 -35 19 -90 -11
-121 -45 -44 -118 -32 -174 29 -78 86 -200 51 -200 -56 0 -35 7 -48 51 -95 29
-29 76 -66 105 -80 l54 -26 0 -55 0 -55 -32 7 c-18 4 -82 40 -143 80 -223 149
-436 215 -693 215 l-125 0 6 103 c21 368 255 798 558 1026 97 74 239 145 339
171 105 27 270 27 376 0z m1678 -1294 c78 -45 110 -156 69 -234 -10 -18 -301
-298 -648 -622 -485 -455 -643 -597 -685 -618 l-55 -27 -845 -3 -845 -3 -395
396 c-389 389 -394 395 -375 413 75 70 272 238 329 281 175 133 386 203 609
202 230 0 427 -66 624 -209 38 -28 83 -57 99 -64 20 -8 120 -14 314 -18 265
-5 288 -7 325 -27 70 -37 105 -94 105 -173 0 -79 -34 -136 -105 -174 -39 -20
-53 -21 -437 -24 l-397 -3 -25 -26 c-37 -37 -37 -109 1 -147 l27 -27 430 3
431 3 60 29 c76 38 153 114 190 190 24 49 30 76 33 151 l4 91 495 324 c273
179 503 328 512 332 38 16 114 8 155 -16z m-3539 -1286 l520 -520 -253 -252
-252 -253 -522 522 -523 523 250 250 c137 137 252 250 255 250 3 0 239 -234
525 -520z"/>
<path d="M2096 1644 c-21 -21 -26 -36 -26 -74 0 -38 5 -53 26 -74 21 -21 36
-26 74 -26 38 0 53 5 74 26 37 38 37 110 0 148 -21 21 -36 26 -74 26 -38 0
-53 -5 -74 -26z"/>
</g>
</svg>
