<?xml version="1.0" standalone="no"?>
<!DOCTYPE svg PUBLIC "-//W3C//DTD SVG 20010904//EN"
 "http://www.w3.org/TR/2001/REC-SVG-20010904/DTD/svg10.dtd">
<svg version="1.0" xmlns="http://www.w3.org/2000/svg"
 width="512.000000pt" height="512.000000pt" viewBox="0 0 512.000000 512.000000"
 preserveAspectRatio="xMidYMid meet">
<metadata>
Created by potrace 1.16, written by Peter Selinger 2001-2019
</metadata>
<g transform="translate(0.000000,512.000000) scale(0.100000,-0.100000)"
fill="#000000" stroke="none">
<path d="M160 5099 c-60 -27 -107 -74 -136 -134 l-24 -50 0 -1352 0 -1352 26
-20 c34 -27 64 -27 98 0 l26 20 0 965 0 964 2410 0 2410 0 0 -170 c0 -157 2
-172 20 -190 12 -12 33 -20 55 -20 22 0 43 8 55 20 20 20 20 33 20 578 0 539
-1 558 -21 602 -27 60 -74 107 -134 136 l-50 24 -2355 0 c-2347 0 -2355 -1
-2400 -21z m4743 -152 c61 -40 62 -44 65 -359 l3 -288 -2410 0 -2411 0 0 263
c0 144 5 280 10 301 11 48 46 85 91 96 19 4 1067 7 2329 7 2175 -2 2297 -3
2323 -20z"/>
<path d="M3523 4753 c-32 -6 -79 -57 -86 -91 -25 -122 120 -205 210 -120 41
39 49 96 20 155 -20 42 -87 68 -144 56z"/>
<path d="M3925 4746 c-45 -20 -67 -50 -72 -99 -10 -82 40 -139 121 -139 55 0
81 14 106 55 40 65 13 154 -55 183 -42 17 -61 17 -100 0z"/>
<path d="M4346 4750 c-39 -12 -63 -36 -77 -77 -22 -68 9 -134 75 -157 86 -30
166 24 166 113 0 57 -25 96 -76 117 -37 16 -47 16 -88 4z"/>
<path d="M889 3951 c-23 -19 -24 -24 -27 -197 -4 -196 -1 -214 30 -244 22 -20
28 -20 1668 -20 1631 0 1646 0 1668 20 30 28 34 62 30 254 -3 162 -4 168 -27
187 -23 19 -64 19 -1671 19 -1607 0 -1648 0 -1671 -19z m3211 -221 l0 -80
-1540 0 -1540 0 0 80 0 80 1540 0 1540 0 0 -80z"/>
<path d="M4997 3549 l-27 -20 -2 -1328 c-3 -1260 -4 -1328 -21 -1354 -10 -16
-32 -37 -50 -47 -31 -19 -54 -20 -495 -20 -255 0 -462 3 -460 8 135 262 193
454 206 688 15 242 -16 463 -93 669 -50 134 -90 212 -173 336 -272 407 -727
669 -1208 697 -486 29 -904 -127 -1240 -462 -335 -336 -491 -754 -462 -1240
13 -235 68 -417 206 -689 2 -4 -210 -6 -472 -5 l-476 3 -31 31 c-16 17 -34 48
-39 70 -5 21 -10 267 -10 546 l0 507 -22 21 c-28 26 -78 26 -106 -1 l-22 -20
2 -562 c3 -520 4 -565 21 -598 26 -51 84 -108 137 -133 44 -20 59 -21 588 -24
l544 -3 26 -32 c233 -284 549 -477 914 -558 145 -33 435 -38 593 -11 382 65
730 268 977 569 l26 32 544 3 c529 3 544 4 588 24 53 25 111 82 137 133 17 34
18 105 21 1393 l2 1356 -26 21 c-34 27 -64 27 -97 0z m-2517 -607 l0 -78 -111
-17 c-211 -34 -398 -111 -563 -233 l-89 -66 -53 53 c-30 29 -54 56 -54 59 0
11 173 136 245 178 170 97 428 178 583 181 l42 1 0 -78z m316 63 c163 -29 333
-89 469 -167 72 -42 245 -167 245 -178 0 -3 -24 -30 -54 -59 l-53 -53 -89 66
c-178 131 -389 214 -616 241 l-58 6 0 80 0 79 34 0 c18 0 73 -7 122 -15z m36
-338 c142 -37 277 -101 388 -184 76 -57 189 -174 247 -256 31 -43 67 -83 80
-88 46 -17 99 11 103 56 5 46 -3 64 -66 149 l-66 89 53 53 c29 30 56 54 59 54
11 0 136 -173 178 -245 88 -153 163 -385 178 -549 l7 -76 -82 0 c-58 0 -81 4
-81 13 -1 22 -18 134 -30 192 -6 31 -20 65 -31 76 -26 26 -90 26 -114 -1 -23
-26 -23 -60 -1 -180 25 -132 18 -316 -18 -455 -31 -119 -114 -292 -185 -386
-63 -83 -189 -203 -271 -259 -91 -62 -235 -127 -347 -157 -88 -24 -115 -27
-273 -27 -158 0 -185 3 -275 27 -119 32 -294 117 -386 186 -83 63 -203 189
-259 271 -62 91 -127 235 -157 347 -24 88 -27 115 -27 273 0 158 3 185 27 273
53 199 156 374 304 518 168 163 355 261 580 304 121 23 341 14 465 -18z
m-1283 -181 l53 -53 -66 -89 c-121 -164 -200 -355 -232 -561 l-18 -113 -79 0
-80 0 7 76 c15 164 90 396 178 549 42 72 167 245 178 245 3 0 30 -24 59 -54z
m-246 -1086 c43 -271 158 -502 345 -693 177 -181 371 -292 618 -354 97 -24
128 -27 284 -28 191 0 258 9 404 57 196 63 346 157 502 312 215 216 333 458
369 759 l6 57 80 0 79 0 0 -27 c0 -16 -7 -69 -15 -118 -75 -464 -365 -853
-790 -1061 -209 -102 -394 -145 -625 -145 -231 0 -416 43 -627 146 -294 144
-514 364 -659 660 -82 167 -144 388 -144 511 l0 34 78 0 78 0 17 -110z"/>
<path d="M2909 2054 l-225 -225 -48 12 c-177 44 -336 -74 -336 -250 0 -232
281 -349 444 -185 68 68 93 169 65 268 l-11 39 226 226 c213 214 226 229 226
264 0 49 -28 77 -78 77 -35 0 -49 -12 -263 -226z m-300 -378 c67 -35 65 -143
-4 -174 -51 -23 -107 -7 -131 39 -47 91 44 182 135 135z"/>
<path d="M2180 1120 c-17 -17 -20 -33 -20 -114 0 -113 14 -140 75 -140 29 0
43 7 62 29 23 26 25 35 21 116 -2 68 -7 91 -22 108 -26 28 -88 29 -116 1z"/>
<path d="M2502 1117 c-19 -20 -22 -35 -22 -111 0 -100 7 -120 50 -134 36 -13
86 1 100 28 6 10 10 59 10 108 0 80 -2 91 -23 110 -32 30 -87 29 -115 -1z"/>
<path d="M2824 1119 c-15 -17 -20 -40 -22 -108 -4 -81 -2 -90 21 -116 19 -22
33 -29 62 -29 61 0 75 27 75 140 0 81 -3 97 -20 114 -28 28 -90 27 -116 -1z"/>
<path d="M894 3307 c-37 -32 -39 -90 -5 -118 22 -18 49 -19 480 -19 l458 0 21
23 c27 29 28 77 3 108 l-19 24 -455 3 -455 3 -28 -24z"/>
<path d="M3293 3320 c-47 -19 -58 -92 -20 -128 23 -22 25 -22 479 -22 430 0
457 1 479 19 34 27 32 86 -5 117 l-27 24 -442 -1 c-243 0 -452 -4 -464 -9z"/>
<path d="M889 2981 c-31 -25 -32 -83 -1 -114 22 -21 29 -22 238 -22 l216 0 24
28 c29 34 31 66 3 101 l-20 26 -219 0 c-198 0 -220 -2 -241 -19z"/>
<path d="M3751 2974 c-28 -35 -26 -67 3 -101 l24 -28 216 0 c209 0 216 1 238
22 31 31 30 89 -1 114 -21 17 -43 19 -241 19 l-219 0 -20 -26z"/>
</g>
</svg>
