<?xml version="1.0" standalone="no"?>
<!DOCTYPE svg PUBLIC "-//W3C//DTD SVG 20010904//EN"
 "http://www.w3.org/TR/2001/REC-SVG-20010904/DTD/svg10.dtd">
<svg version="1.0" xmlns="http://www.w3.org/2000/svg"
 width="512.000000pt" height="512.000000pt" viewBox="0 0 512.000000 512.000000"
 preserveAspectRatio="xMidYMid meet">
<metadata>
Created by potrace 1.16, written by Peter Selinger 2001-2019
</metadata>
<g transform="translate(0.000000,512.000000) scale(0.100000,-0.100000)"
fill="#000000" stroke="none">
<path d="M279 5096 c-120 -49 -190 -114 -242 -224 l-32 -67 0 -2246 0 -2245
37 -75 c46 -93 112 -158 206 -202 l67 -32 2299 -3 c1626 -1 2310 1 2339 9 53
14 141 102 156 155 8 27 11 518 11 1632 0 1731 4 1619 -54 1695 -14 19 -50 47
-78 63 l-53 29 -502 3 -503 3 0 572 c0 622 -2 644 -56 742 -34 61 -112 138
-166 166 -100 51 -18 49 -1753 49 l-1620 0 -56 -24z m2451 -552 c0 -234 4
-403 10 -413 13 -26 64 -45 97 -37 17 4 70 49 130 109 l103 101 97 -95 c54
-53 109 -102 122 -108 30 -17 83 -6 107 20 18 20 19 45 22 420 l3 399 67 0
c117 0 211 -64 247 -169 13 -38 15 -129 15 -613 l0 -568 -566 0 c-364 0 -580
-4 -607 -11 -68 -17 -131 -69 -163 -136 l-29 -58 -3 -1554 c-1 -867 2 -1575 6
-1602 l9 -49 -1006 0 c-692 0 -1018 3 -1045 11 -52 14 -141 103 -155 155 -15
55 -15 4373 0 4428 14 49 103 141 150 154 21 6 482 11 1212 11 l1177 1 0 -396z
m510 124 l0 -272 -62 61 c-35 33 -73 64 -84 67 -34 10 -75 -11 -131 -67 l-53
-51 0 267 0 267 165 0 165 0 0 -272z m1659 -1273 c16 -8 31 -22 35 -30 3 -9 6
-719 6 -1578 l0 -1561 -22 -23 -21 -23 -1142 0 -1142 0 -24 26 -24 26 -3 1536
c-2 1082 0 1548 8 1574 21 72 -59 67 1183 68 962 0 1122 -2 1146 -15z"/>
<path d="M1114 4596 c-150 -34 -268 -100 -379 -211 -153 -153 -225 -327 -225
-545 0 -218 72 -392 225 -545 153 -153 327 -225 545 -225 218 0 392 72 545
225 114 115 178 232 212 388 22 108 13 288 -21 392 -76 235 -266 425 -501 501
-99 33 -301 42 -401 20z m288 -177 c167 -34 331 -164 406 -320 51 -105 67
-185 59 -297 -9 -148 -66 -272 -171 -378 -233 -232 -599 -232 -831 1 -115 114
-175 257 -175 415 0 97 16 162 62 259 72 152 227 277 390 317 67 16 191 17
260 3z"/>
<path d="M1190 4306 c0 -50 -2 -54 -30 -66 -42 -17 -104 -88 -125 -143 -56
-147 49 -320 207 -343 67 -9 95 -23 108 -54 14 -34 6 -63 -23 -90 -39 -37
-104 -15 -122 40 -6 18 -15 20 -97 20 l-91 0 6 -39 c10 -77 73 -164 138 -191
27 -12 29 -16 29 -66 l0 -54 90 0 90 0 0 54 c0 50 2 54 30 66 42 17 104 88
125 143 56 147 -49 320 -207 343 -67 9 -95 23 -108 54 -14 34 -6 63 23 90 39
37 104 15 122 -40 6 -18 15 -20 97 -20 l91 0 -6 39 c-10 77 -73 164 -138 191
-27 12 -29 16 -29 66 l0 54 -90 0 -90 0 0 -54z"/>
<path d="M510 2650 l0 -90 260 0 260 0 0 90 0 90 -260 0 -260 0 0 -90z"/>
<path d="M1190 2650 l0 -90 430 0 430 0 0 90 0 90 -430 0 -430 0 0 -90z"/>
<path d="M510 2300 l0 -90 770 0 770 0 0 90 0 90 -770 0 -770 0 0 -90z"/>
<path d="M510 1960 l0 -90 515 0 515 0 0 90 0 90 -515 0 -515 0 0 -90z"/>
<path d="M1700 1960 l0 -90 175 0 175 0 0 90 0 90 -175 0 -175 0 0 -90z"/>
<path d="M510 1450 l0 -90 770 0 770 0 0 90 0 90 -770 0 -770 0 0 -90z"/>
<path d="M510 1110 l0 -90 770 0 770 0 0 90 0 90 -770 0 -770 0 0 -90z"/>
<path d="M510 770 l0 -90 770 0 770 0 0 90 0 90 -770 0 -770 0 0 -90z"/>
<path d="M2845 3239 c-38 -12 -68 -37 -94 -80 -21 -33 -21 -44 -21 -683 l0
-649 25 -43 c17 -28 39 -49 68 -63 44 -21 45 -21 944 -19 l899 3 37 25 c20 13
45 41 56 61 21 36 21 50 21 684 0 634 0 648 -21 684 -11 20 -36 48 -56 61
l-37 25 -895 2 c-532 1 -908 -2 -926 -8z m1755 -764 l0 -595 -845 0 -845 0 0
595 0 595 845 0 845 0 0 -595z"/>
<path d="M3660 2940 c0 -44 -3 -51 -27 -64 -42 -22 -100 -86 -119 -131 -9 -22
-16 -67 -16 -100 0 -139 82 -233 224 -256 75 -12 108 -38 108 -83 -1 -88 -120
-109 -148 -27 l-11 31 -90 0 -90 0 6 -37 c12 -84 66 -163 134 -199 26 -13 29
-20 29 -64 l0 -50 90 0 90 0 0 49 c0 44 3 50 28 60 41 17 108 89 128 136 21
50 21 150 -1 201 -18 44 -77 109 -118 131 -16 8 -56 19 -90 24 -75 12 -107 38
-107 86 0 67 82 99 128 50 12 -13 22 -31 22 -40 0 -15 13 -17 95 -17 l95 0 -6
33 c-12 69 -28 103 -71 148 -24 26 -57 52 -73 59 -27 11 -30 17 -30 61 l0 49
-90 0 -90 0 0 -50z"/>
<path d="M2756 1515 l-26 -24 0 -551 0 -551 25 -24 24 -25 976 0 976 0 24 25
25 24 0 551 0 551 -26 24 -27 25 -972 0 -972 0 -27 -25z m564 -320 l0 -165
-205 0 -205 0 0 165 0 165 205 0 205 0 0 -165z m600 0 l0 -165 -210 0 -210 0
0 165 0 165 210 0 210 0 0 -165z m680 -255 l0 -420 -250 0 -250 0 0 420 0 420
250 0 250 0 0 -420z m-1280 -255 l0 -165 -205 0 -205 0 0 165 0 165 205 0 205
0 0 -165z m600 0 l0 -165 -210 0 -210 0 0 165 0 165 210 0 210 0 0 -165z"/>
</g>
</svg>
