<?xml version="1.0" standalone="no"?>
<!DOCTYPE svg PUBLIC "-//W3C//DTD SVG 20010904//EN"
 "http://www.w3.org/TR/2001/REC-SVG-20010904/DTD/svg10.dtd">
<svg version="1.0" xmlns="http://www.w3.org/2000/svg"
 width="512.000000pt" height="512.000000pt" viewBox="0 0 512.000000 512.000000"
 preserveAspectRatio="xMidYMid meet">
<metadata>
Created by potrace 1.16, written by Peter Selinger 2001-2019
</metadata>
<g transform="translate(0.000000,512.000000) scale(0.100000,-0.100000)"
fill="#000000" stroke="none">
<path d="M2240 4584 c-1001 -145 -1721 -1007 -1687 -2019 10 -285 56 -501 163
-752 38 -89 102 -214 143 -279 12 -18 -5 -71 -153 -470 -91 -247 -166 -464
-166 -481 0 -22 10 -43 28 -64 50 -56 60 -52 532 149 234 100 431 182 438 182
8 0 44 -18 81 -39 130 -76 323 -153 489 -195 155 -40 276 -57 447 -63 772 -28
1466 368 1824 1038 376 705 281 1609 -237 2242 -73 88 -234 248 -322 319 -289
230 -651 385 -1018 433 -140 19 -432 18 -562 -1z m575 -214 c388 -63 719 -229
1004 -505 171 -166 281 -315 384 -520 350 -698 220 -1531 -322 -2072 -365
-365 -876 -554 -1386 -513 -294 24 -533 99 -801 251 -66 38 -130 69 -143 69
-12 0 -175 -65 -363 -145 -188 -80 -345 -144 -349 -143 -4 2 51 158 122 348
81 218 128 359 129 384 0 30 -13 61 -54 130 -198 334 -286 664 -273 1026 11
304 85 570 229 822 270 474 728 787 1273 872 139 22 406 20 550 -4z"/>
<path d="M1874 3786 c-97 -31 -209 -114 -304 -222 -109 -124 -150 -232 -150
-390 0 -492 389 -1106 933 -1472 372 -252 804 -363 1037 -268 220 90 425 332
423 501 -1 113 -31 153 -183 243 -52 31 -133 80 -179 110 -203 131 -301 153
-396 90 -26 -17 -86 -78 -132 -135 l-85 -102 -37 15 c-193 80 -500 378 -607
589 l-35 70 38 33 c136 119 196 179 213 213 41 79 19 172 -75 325 -31 49 -87
141 -125 204 -75 125 -105 162 -150 185 -42 22 -137 28 -186 11z m109 -233
c14 -21 44 -72 69 -113 25 -41 74 -122 109 -178 l63 -104 -45 -41 c-25 -23
-81 -73 -123 -111 -43 -38 -85 -84 -92 -102 -54 -129 60 -354 305 -607 217
-224 443 -366 581 -367 68 0 114 33 217 155 51 61 98 111 106 113 7 1 49 -19
92 -46 44 -27 134 -82 200 -122 66 -40 126 -78 133 -84 38 -36 -137 -245 -253
-302 -56 -27 -68 -29 -170 -28 -174 0 -363 61 -584 188 -529 302 -961 918
-961 1369 0 76 3 91 35 155 27 53 56 89 115 145 67 63 146 117 172 117 4 0 18
-17 31 -37z"/>
</g>
</svg>
