<?xml version="1.0" standalone="no"?>
<!DOCTYPE svg PUBLIC "-//W3C//DTD SVG 20010904//EN"
 "http://www.w3.org/TR/2001/REC-SVG-20010904/DTD/svg10.dtd">
<svg version="1.0" xmlns="http://www.w3.org/2000/svg"
 width="512.000000pt" height="512.000000pt" viewBox="0 0 512.000000 512.000000"
 preserveAspectRatio="xMidYMid meet">
<metadata>
Created by potrace 1.16, written by Peter Selinger 2001-2019
</metadata>
<g transform="translate(0.000000,512.000000) scale(0.100000,-0.100000)"
fill="#000000" stroke="none">
<path d="M3365 5034 c-93 -24 -159 -71 -198 -142 -37 -69 -53 -139 -67 -293
-39 -459 -214 -842 -525 -1153 -110 -110 -219 -194 -352 -273 l-96 -56 -21 29
c-49 68 -103 116 -165 147 -57 28 -76 32 -147 33 l-82 0 -50 45 c-142 124
-327 189 -536 189 -51 0 -183 -11 -292 -25 -109 -14 -227 -25 -261 -25 -184 0
-342 -87 -445 -244 -46 -71 -72 -151 -100 -306 -26 -147 -36 -657 -19 -957 28
-478 112 -1177 182 -1526 53 -263 145 -360 370 -389 80 -10 156 -8 489 11 222
12 428 29 469 37 87 18 154 50 195 92 25 27 32 29 55 20 46 -17 136 -12 185
11 91 45 178 166 236 331 13 36 24 66 26 68 1 2 66 -29 145 -69 329 -164 540
-237 795 -275 133 -20 466 -22 639 -5 207 20 506 61 600 82 176 38 315 130
372 247 52 105 41 268 -24 380 -13 24 -23 45 -21 46 1 2 32 18 67 37 173 91
273 276 243 449 -14 75 -49 154 -90 201 l-31 35 47 35 c58 42 122 135 146 212
14 45 17 81 14 156 -3 85 -8 106 -36 163 -18 36 -54 90 -81 118 l-49 53 40 50
c85 108 123 223 116 354 -10 185 -128 311 -348 372 -217 60 -611 50 -915 -23
-55 -14 -101 -23 -103 -21 -2 1 16 31 38 66 91 140 163 325 200 515 29 143 31
387 6 519 -79 418 -273 669 -524 680 -42 2 -86 2 -97 -1z m203 -125 c188 -94
325 -396 338 -749 11 -289 -63 -562 -215 -796 -59 -90 -173 -225 -223 -264
-17 -13 -28 -31 -28 -45 0 -26 24 -55 45 -55 14 0 71 45 110 87 39 42 328 118
544 143 142 17 485 8 566 -14 225 -62 329 -189 304 -370 -32 -238 -257 -392
-543 -371 -55 3 -121 7 -146 8 l-45 2 0 -40 0 -40 52 -11 c91 -20 91 -20 53
-59 -55 -57 -15 -93 42 -38 l28 27 38 -37 c44 -43 82 -50 82 -14 0 13 15 38
35 57 36 35 50 33 57 -4 2 -13 15 -23 37 -28 45 -12 65 -4 58 24 -4 14 0 29
10 40 16 18 17 17 40 -4 21 -20 22 -23 7 -39 -17 -19 -16 -50 3 -56 6 -2 28
11 50 29 21 18 35 28 30 23 -4 -4 0 -19 9 -33 14 -22 14 -25 -1 -42 -33 -37 8
-69 44 -36 14 13 19 11 43 -9 22 -19 25 -25 13 -35 -10 -8 -18 -8 -34 2 -17
10 -23 10 -36 -3 -13 -13 -13 -18 -1 -34 12 -16 12 -22 -2 -43 -14 -21 -14
-25 1 -39 15 -15 18 -15 35 0 19 18 42 23 42 10 0 -20 -63 -113 -95 -141 -113
-100 -277 -135 -518 -112 -138 13 -157 9 -157 -34 0 -37 15 -47 76 -53 47 -4
63 -10 77 -30 17 -22 18 -26 3 -42 -37 -41 -3 -80 38 -42 l22 21 34 -35 c37
-38 70 -46 70 -17 0 10 15 33 34 51 36 35 53 29 47 -17 -2 -16 3 -22 17 -22
11 0 34 -3 52 -7 32 -6 33 -5 28 25 -3 24 1 37 19 54 l24 22 26 -27 27 -27
-38 -39 c-25 -25 -37 -45 -33 -55 7 -18 38 -21 53 -6 8 8 14 7 22 -3 9 -11 8
-18 -8 -32 -24 -21 -26 -43 -5 -51 8 -4 15 -11 15 -17 0 -6 10 -21 22 -34 l22
-23 -32 -33 c-32 -33 -41 -62 -21 -69 15 -5 -70 -64 -135 -94 -116 -53 -259
-65 -482 -42 -123 13 -144 7 -144 -37 0 -42 20 -48 214 -65 82 -7 151 -7 219
0 111 11 119 8 158 -54 17 -29 17 -29 -6 -48 -20 -15 -29 -17 -45 -8 -11 6
-25 8 -30 5 -13 -8 -13 -42 1 -51 8 -4 8 -9 0 -17 -29 -29 3 -73 35 -46 13 10
19 9 37 -9 15 -15 17 -22 7 -22 -7 0 -24 -10 -36 -21 l-23 -22 -31 26 c-53 45
-84 8 -35 -43 l25 -26 -25 -24 c-21 -19 -27 -21 -40 -10 -11 9 -13 16 -5 24
17 17 12 46 -8 46 -25 0 -72 -23 -72 -36 0 -5 -16 -25 -35 -44 l-35 -34 -24
23 c-15 14 -32 21 -40 18 -10 -4 -16 -1 -16 8 0 32 -38 12 -107 -57 -57 -57
-75 -70 -85 -60 -15 15 -45 16 -53 2 -4 -6 0 -21 8 -34 15 -22 14 -25 -16 -54
-30 -28 -40 -31 -157 -43 -72 -8 -231 -14 -375 -14 -216 1 -266 4 -367 23
-145 27 -308 80 -496 161 -113 48 -357 164 -369 175 -2 2 5 50 14 107 27 167
21 508 -20 1274 -36 647 -46 783 -67 856 -13 46 -13 49 8 49 26 0 153 72 237
135 339 250 602 627 714 1020 31 111 50 219 66 385 17 178 24 209 64 271 59
94 189 118 309 58z m-2259 -1465 c93 -23 217 -85 280 -141 117 -103 165 -224
181 -456 29 -421 -8 -2138 -51 -2393 -6 -33 -24 -84 -40 -112 -24 -42 -39 -56
-91 -81 -79 -38 -136 -45 -522 -67 -375 -21 -530 -17 -603 15 -133 59 -164
143 -237 653 -108 743 -156 1470 -126 1878 18 245 54 388 120 488 78 117 175
169 338 183 112 10 452 48 487 54 40 7 200 -5 264 -21z m548 -219 c104 -31
194 -146 227 -290 27 -116 99 -1524 92 -1790 -8 -314 -40 -488 -118 -637 -59
-113 -140 -178 -223 -178 -40 0 -44 11 -29 70 15 58 36 380 55 845 17 391 16
1558 0 1685 -15 116 -36 200 -65 263 -27 55 -23 57 61 32z"/>
<path d="M4135 3120 c-93 -10 -176 -19 -182 -19 -20 -1 -16 -51 3 -51 9 0 111
9 228 21 271 27 372 23 446 -17 74 -40 105 -90 105 -167 0 -43 4 -62 14 -65
22 -8 41 28 41 77 -1 87 -57 168 -149 213 -41 20 -63 23 -191 24 -87 1 -213
-5 -315 -16z"/>
<path d="M817 3183 c-4 -3 -7 -12 -7 -20 0 -17 -68 -77 -89 -79 -9 -1 -22 -2
-30 -3 -9 -1 -12 -9 -9 -25 4 -20 -7 -36 -53 -82 l-59 -58 -34 33 c-22 21 -41
31 -50 28 -25 -10 -19 -41 14 -72 l30 -29 -27 -28 -27 -28 -47 46 c-31 31 -53
45 -63 41 -27 -11 -18 -39 26 -84 l42 -43 -78 -80 c-43 -44 -76 -85 -74 -92
11 -33 43 -17 117 56 l77 76 44 -45 44 -45 -78 -79 c-54 -55 -77 -84 -73 -95
12 -31 42 -15 117 59 l76 76 24 -26 c13 -14 32 -25 42 -25 32 0 33 29 2 61
l-28 29 27 27 27 27 33 -32 c36 -35 77 -43 77 -15 0 9 -16 33 -35 53 l-35 36
60 59 60 59 38 -37 c40 -39 82 -49 82 -20 0 10 -18 36 -40 58 l-40 41 38 37
38 37 49 -50 49 -50 -59 -60 c-56 -57 -58 -61 -42 -77 16 -16 20 -14 77 42
l60 59 39 -38 c25 -25 45 -37 55 -33 26 10 18 41 -19 77 l-35 34 50 51 c51 52
64 85 33 85 -10 0 -40 -22 -68 -50 l-51 -50 -74 75 -74 75 38 39 c25 25 37 45
33 55 -10 25 -28 19 -69 -21 l-38 -37 -43 42 c-42 41 -57 49 -70 35z m-62
-213 c18 -20 18 -21 -15 -55 -32 -33 -33 -36 -17 -52 16 -16 19 -15 52 17 19
18 37 31 40 29 2 -3 -22 -32 -55 -64 l-60 -59 -45 44 -45 44 57 58 c32 32 60
58 64 58 3 0 14 -9 24 -20z"/>
<path d="M1017 976 c-83 -23 -157 -97 -177 -180 -6 -23 -19 -57 -30 -76 -47
-88 -31 -216 38 -292 143 -158 423 -96 517 114 22 49 28 77 28 139 1 67 -3 85
-32 143 -33 68 -81 114 -145 141 -52 22 -143 27 -199 11z m221 -148 c40 -42
62 -96 62 -153 0 -59 -19 -102 -66 -155 -84 -93 -209 -117 -284 -53 l-31 26
21 22 c14 15 29 21 45 17 22 -4 25 -1 25 25 0 21 12 41 45 73 45 44 58 80 30
80 -8 0 -15 6 -15 13 0 7 -13 26 -30 42 -28 27 -29 30 -13 47 21 24 31 23 35
-4 2 -15 13 -24 37 -31 45 -11 65 -3 58 25 -6 23 17 58 38 58 6 0 25 -15 43
-32z"/>
</g>
</svg>
