<?xml version="1.0" standalone="no"?>
<!DOCTYPE svg PUBLIC "-//W3C//DTD SVG 20010904//EN"
 "http://www.w3.org/TR/2001/REC-SVG-20010904/DTD/svg10.dtd">
<svg version="1.0" xmlns="http://www.w3.org/2000/svg"
 width="512.000000pt" height="512.000000pt" viewBox="0 0 512.000000 512.000000"
 preserveAspectRatio="xMidYMid meet">
<metadata>
Created by potrace 1.16, written by Peter Selinger 2001-2019
</metadata>
<g transform="translate(0.000000,512.000000) scale(0.100000,-0.100000)"
fill="#000000" stroke="none">
<path d="M3220 4940 c-20 -20 -20 -33 -20 -1240 l0 -1220 -120 0 c-113 0 -120
1 -120 20 0 11 -9 29 -20 40 -18 18 -34 20 -167 20 l-148 1 -38 81 c-71 150
-229 276 -384 308 -34 8 -100 10 -163 8 -119 -6 -182 -25 -276 -86 l-58 -38
-38 38 c-59 59 -111 81 -203 86 -44 2 -99 -1 -122 -7 -92 -25 -189 -122 -214
-214 -6 -22 -10 -71 -10 -109 l0 -68 -99 0 c-87 0 -103 -3 -120 -20 -11 -11
-20 -29 -20 -40 0 -19 -7 -20 -140 -20 -127 0 -142 -2 -160 -20 -19 -19 -20
-33 -20 -312 0 -329 9 -405 65 -575 61 -184 149 -337 280 -487 l75 -85 25
-368 c30 -427 30 -428 56 -454 19 -19 40 -19 855 -19 526 0 842 4 854 10 24
13 40 62 40 124 0 28 3 68 6 89 l7 38 48 -82 c55 -91 94 -148 117 -167 12 -9
174 -12 734 -12 705 0 718 0 738 20 36 36 27 84 -34 174 -154 230 -185 376
-186 847 0 152 -4 200 -20 263 -50 196 -192 372 -367 457 l-92 44 0 158 c-1
143 -3 159 -21 177 -11 11 -29 20 -40 20 -20 0 -20 7 -20 1300 0 1287 0 1300
-20 1320 -19 19 -33 20 -220 20 -187 0 -201 -1 -220 -20z m300 -1380 l0 -1240
-80 0 -80 0 0 1240 0 1240 80 0 80 0 0 -1240z m-1999 -793 c18 -12 40 -34 48
-48 13 -23 11 -31 -12 -90 l-26 -64 -108 -3 c-125 -3 -133 2 -133 77 0 120
134 194 231 128z m725 -15 c246 -126 304 -444 113 -616 -26 -23 -75 -57 -110
-76 -35 -18 -68 -40 -74 -49 -6 -9 -12 -153 -15 -347 -5 -308 -6 -333 -24
-353 -25 -27 -79 -28 -106 -1 -18 18 -20 33 -20 160 0 166 -9 193 -68 209 -20
6 -46 11 -57 11 -33 1 -98 36 -132 71 -61 65 -63 77 -66 421 l-2 313 27 57
c36 77 70 121 129 163 78 58 138 75 249 72 84 -3 102 -7 156 -35z m-736 -432
l0 -80 -235 0 -235 0 0 80 0 80 235 0 235 0 0 -80z m1290 0 l0 -80 -85 0 -85
0 6 58 c10 109 5 102 89 102 l75 0 0 -80z m-1920 -96 c0 -52 5 -105 11 -116
10 -18 72 -798 64 -806 -2 -2 -26 34 -54 79 -133 216 -180 426 -181 802 l0
137 80 0 80 0 0 -96z m2260 76 c-18 -18 -20 -33 -20 -194 l0 -174 -52 -30
c-29 -16 -75 -49 -102 -73 l-48 -43 7 125 c4 68 12 142 18 164 5 22 12 86 14
143 l4 102 100 0 99 0 -20 -20z m460 -220 l0 -80 -129 0 c-71 0 -143 -3 -160
-6 l-31 -6 0 86 0 86 160 0 160 0 0 -80z m-2080 -113 c0 -75 5 -132 16 -168
34 -115 133 -219 245 -259 l54 -18 5 -124 c4 -104 8 -129 27 -158 52 -84 117
-120 215 -120 101 1 173 44 222 135 20 38 21 55 24 346 l3 305 55 33 c30 18
80 57 110 87 l56 54 107 0 106 0 -35 -495 -35 -495 -54 -41 c-83 -62 -179
-116 -272 -153 -133 -54 -129 -53 -129 -12 0 23 -7 43 -20 56 -19 19 -33 20
-260 20 -227 0 -241 -1 -260 -20 -14 -14 -20 -33 -20 -65 0 -25 -2 -45 -4 -45
-21 0 -195 58 -252 84 -75 35 -197 110 -249 154 l-30 25 -35 493 -35 494 222
0 223 0 0 -113z m2125 -149 c157 -34 312 -161 378 -308 44 -97 48 -135 57
-465 6 -223 13 -340 23 -385 22 -93 63 -205 103 -277 l35 -63 -95 0 -96 0 -29
40 c-50 69 -109 193 -136 285 -29 102 -45 280 -45 523 0 139 -2 154 -20 172
-13 13 -33 20 -60 20 -27 0 -47 -7 -60 -20 -19 -19 -20 -33 -20 -277 0 -291
11 -388 61 -529 17 -49 46 -117 65 -151 l35 -63 -175 0 -176 0 -29 40 c-50 69
-109 193 -136 285 -29 102 -45 280 -45 523 0 139 -2 154 -20 172 -13 13 -33
20 -60 20 -27 0 -47 -7 -60 -20 -19 -19 -20 -33 -20 -277 0 -291 11 -388 61
-529 17 -49 46 -117 65 -151 l35 -63 -95 0 -96 0 -29 40 c-50 69 -109 193
-136 285 -39 137 -58 488 -36 681 21 181 105 320 254 419 127 85 322 113 502
73z m-2143 -1117 c53 -17 115 -34 138 -37 l40 -7 0 -68 c0 -112 -7 -109 278
-109 190 0 242 3 258 14 15 12 20 30 24 96 l5 81 100 33 c96 31 198 78 292
133 l44 26 -6 -59 c-4 -49 -35 -462 -35 -479 0 -3 -324 -5 -720 -5 -396 0
-720 2 -720 5 0 17 -30 429 -35 477 l-6 57 123 -63 c68 -35 167 -78 220 -95z
m578 19 l0 -80 -120 0 -120 0 0 80 0 80 120 0 120 0 0 -80z"/>
<path d="M2027 2628 c-28 -22 -38 -65 -24 -101 11 -26 24 -35 73 -52 58 -20
59 -21 77 -75 20 -65 37 -80 89 -80 56 0 78 27 78 93 -1 125 -102 227 -228
227 -26 0 -56 -6 -65 -12z"/>
<path d="M1735 3581 c-87 -40 -135 -120 -135 -223 1 -142 97 -238 240 -238
144 0 240 96 240 240 0 104 -53 187 -142 224 -52 22 -153 20 -203 -3z m155
-171 c11 -11 20 -33 20 -50 0 -17 -9 -39 -20 -50 -11 -11 -33 -20 -50 -20 -17
0 -39 9 -50 20 -11 11 -20 33 -20 50 0 17 9 39 20 50 11 11 33 20 50 20 17 0
39 -9 50 -20z"/>
</g>
</svg>
