<?xml version="1.0" standalone="no"?>
<!DOCTYPE svg PUBLIC "-//W3C//DTD SVG 20010904//EN"
 "http://www.w3.org/TR/2001/REC-SVG-20010904/DTD/svg10.dtd">
<svg version="1.0" xmlns="http://www.w3.org/2000/svg"
 width="512.000000pt" height="512.000000pt" viewBox="0 0 512.000000 512.000000"
 preserveAspectRatio="xMidYMid meet">
<metadata>
Created by potrace 1.16, written by Peter Selinger 2001-2019
</metadata>
<g transform="translate(0.000000,512.000000) scale(0.100000,-0.100000)"
fill="#000000" stroke="none">
<path d="M145 5101 c-22 -10 -57 -36 -77 -57 -74 -78 -68 131 -68 -2316 l0
-2202 21 -43 c26 -54 96 -116 147 -131 29 -9 368 -12 1324 -12 l1285 0 6 -29
c8 -38 51 -88 98 -111 32 -17 59 -20 171 -20 l134 0 59 -61 c90 -92 137 -119
207 -119 72 0 114 17 154 62 16 19 75 134 129 256 55 122 102 221 105 221 3 0
50 -99 104 -221 55 -122 113 -237 130 -256 40 -45 82 -62 154 -62 70 0 117 27
207 119 l59 61 131 0 c104 0 138 4 170 19 51 23 91 70 106 124 20 75 21 73
-179 528 l-60 137 44 31 c55 39 102 104 132 184 18 47 40 79 93 134 94 97 112
139 119 283 5 100 10 123 35 175 27 55 29 70 30 165 0 96 -3 110 -29 165 -25
52 -30 76 -36 180 -8 146 -29 196 -124 289 -34 33 -68 77 -75 96 -59 161 -113
219 -262 275 -54 21 -77 37 -106 72 -81 98 -163 135 -313 138 -96 2 -111 5
-175 36 -62 30 -79 33 -155 33 -75 0 -93 -4 -154 -32 -37 -18 -74 -32 -82 -32
-12 0 -14 99 -14 625 0 540 -2 631 -15 663 -17 40 -579 612 -627 638 -23 12
-226 14 -1395 14 -1312 0 -1370 -1 -1408 -19z m2667 -363 c3 -203 3 -203 32
-256 32 -57 79 -98 135 -118 25 -9 99 -13 234 -14 l197 0 0 -589 0 -588 -47
-18 c-66 -25 -123 -65 -166 -118 -29 -36 -52 -51 -109 -73 -120 -45 -190 -107
-231 -204 -8 -19 -23 -54 -33 -78 -10 -25 -38 -60 -69 -86 -31 -27 -65 -69
-85 -108 -31 -58 -34 -72 -40 -183 -6 -104 -11 -128 -36 -180 -26 -55 -29 -69
-29 -165 1 -96 3 -110 30 -165 26 -52 30 -73 33 -163 4 -144 24 -193 119 -292
57 -61 78 -91 94 -136 25 -73 77 -146 133 -186 l43 -30 -79 -182 c-44 -99 -89
-205 -101 -233 l-22 -53 -1294 0 -1295 0 -23 22 -23 21 0 2166 0 2165 22 23
21 23 1293 0 1293 0 3 -202z m351 -206 c-162 -4 -173 7 -173 176 l0 107 140
-140 140 -140 -107 -3z m767 -1492 c88 -39 161 -54 221 -46 78 11 123 -9 200
-85 69 -69 113 -97 186 -119 67 -20 99 -56 138 -148 38 -93 69 -139 121 -178
56 -43 68 -75 74 -204 5 -102 9 -123 38 -184 38 -81 42 -143 12 -201 -35 -68
-50 -135 -50 -221 0 -46 -5 -95 -10 -110 -6 -15 -44 -62 -84 -104 -61 -64 -77
-88 -101 -153 -34 -94 -64 -124 -165 -162 -57 -22 -88 -42 -144 -95 -39 -37
-82 -73 -96 -81 -15 -8 -71 -16 -140 -19 -102 -5 -123 -9 -184 -38 -86 -41
-126 -41 -212 0 -61 29 -82 33 -184 38 -69 3 -125 11 -140 19 -14 8 -57 44
-96 81 -56 53 -87 73 -144 95 -93 36 -134 72 -156 138 -27 82 -42 106 -120
188 -41 43 -74 79 -75 81 -1 2 -4 57 -8 123 -6 99 -13 131 -36 185 -43 100
-44 148 -4 233 29 63 33 83 36 177 5 129 19 164 88 224 52 45 76 84 131 214
21 52 60 83 130 106 68 22 136 68 180 121 51 63 90 78 209 80 79 1 112 7 155
24 148 61 140 61 230 21z m-600 -2256 c48 -24 71 -29 175 -34 96 -5 128 -10
162 -28 l42 -22 -63 -137 c-34 -76 -87 -191 -116 -257 -30 -65 -60 -121 -68
-123 -8 -4 -46 26 -96 76 -52 52 -94 85 -116 91 -19 6 -92 10 -162 10 -70 0
-129 4 -132 9 -5 7 59 160 205 490 l20 45 47 -46 c26 -26 72 -59 102 -74z
m1289 -153 c61 -140 108 -258 105 -262 -3 -5 -62 -9 -132 -9 -70 0 -143 -4
-162 -10 -23 -6 -62 -37 -115 -90 -44 -44 -85 -80 -92 -80 -16 0 -14 -4 -143
280 l-109 241 52 25 c43 20 68 24 143 24 132 0 216 33 293 114 19 20 38 33 42
29 4 -5 57 -122 118 -262z"/>
<path d="M1139 4523 c-15 -2 -51 -19 -80 -36 -94 -56 -142 -167 -119 -271 14
-64 31 -94 77 -138 73 -71 38 -68 776 -68 l663 0 52 26 c163 81 191 302 53
427 -75 68 -71 67 -770 66 -344 -1 -638 -4 -652 -6z m1307 -206 c31 -36 31
-71 -1 -102 l-24 -25 -629 0 -629 0 -20 23 c-25 26 -29 43 -20 79 15 59 4 58
680 55 l619 -2 24 -28z"/>
<path d="M535 3645 c-35 -34 -34 -93 1 -126 l26 -24 1206 -3 c856 -2 1218 0
1245 8 67 20 87 102 35 150 -22 20 -30 20 -1255 20 l-1234 0 -24 -25z"/>
<path d="M541 3224 c-41 -34 -44 -92 -6 -129 l24 -25 1149 0 1149 0 20 23 c29
32 35 56 22 94 -22 67 51 63 -1198 63 l-1129 0 -31 -26z"/>
<path d="M535 2795 c-25 -24 -33 -73 -19 -110 17 -43 36 -45 558 -45 l495 0
28 24 c22 19 28 32 28 66 0 34 -6 47 -28 66 l-28 24 -505 0 -505 0 -24 -25z"/>
<path d="M1815 2795 c-48 -47 -26 -134 37 -150 13 -3 169 -5 346 -3 l324 3 19
24 c28 34 25 96 -6 126 l-24 25 -336 0 -336 0 -24 -25z"/>
<path d="M535 2365 c-35 -34 -34 -93 1 -126 25 -23 30 -24 189 -24 159 0 164
1 189 24 35 33 36 98 3 129 -22 21 -33 22 -191 22 -164 0 -167 0 -191 -25z"/>
<path d="M1133 2368 c-48 -54 -31 -129 34 -148 26 -8 209 -10 605 -8 l566 3
26 24 c35 33 36 98 3 129 l-23 22 -595 0 -596 0 -20 -22z"/>
<path d="M541 1944 c-41 -34 -44 -92 -6 -129 l24 -25 891 0 891 0 24 25 c25
24 33 73 19 110 -18 45 -9 45 -938 45 l-874 0 -31 -26z"/>
<path d="M535 1515 c-25 -24 -33 -73 -19 -110 18 -46 6 -45 984 -45 l922 0 29
29 c39 40 39 82 0 122 l-29 29 -932 0 -931 0 -24 -25z"/>
<path d="M535 1085 c-35 -34 -34 -93 1 -126 l26 -24 481 -3 c334 -2 494 0 520
8 30 9 42 19 53 46 17 40 11 69 -19 102 l-20 22 -509 0 -509 0 -24 -25z"/>
<path d="M3690 2809 c-269 -45 -510 -232 -629 -491 -57 -123 -76 -211 -75
-353 0 -66 6 -147 13 -180 72 -331 334 -593 663 -661 90 -19 265 -19 355 0
316 66 569 306 654 622 31 113 31 316 0 429 -106 390 -444 649 -841 644 -47
-1 -110 -5 -140 -10z m359 -205 c213 -70 388 -256 447 -474 23 -86 24 -243 1
-330 -65 -246 -262 -440 -503 -496 -85 -19 -223 -19 -309 1 -240 55 -437 250
-502 495 -23 87 -22 244 1 330 68 251 276 445 537 500 82 17 235 5 328 -26z"/>
<path d="M3864 2029 l-192 -192 -28 22 c-50 39 -122 21 -141 -36 -16 -46 2
-86 66 -146 53 -51 64 -57 102 -57 43 0 45 2 267 223 123 122 228 230 234 241
34 62 -9 136 -79 136 -34 0 -50 -13 -229 -191z"/>
</g>
</svg>
