<?xml version="1.0" standalone="no"?>
<!DOCTYPE svg PUBLIC "-//W3C//DTD SVG 20010904//EN"
 "http://www.w3.org/TR/2001/REC-SVG-20010904/DTD/svg10.dtd">
<svg version="1.0" xmlns="http://www.w3.org/2000/svg"
 width="512.000000pt" height="512.000000pt" viewBox="0 0 512.000000 512.000000"
 preserveAspectRatio="xMidYMid meet">
<metadata>
Created by potrace 1.16, written by Peter Selinger 2001-2019
</metadata>
<g transform="translate(0.000000,512.000000) scale(0.100000,-0.100000)"
fill="#000000" stroke="none">
<path d="M864 5021 c-221 -63 -392 -237 -448 -457 -20 -75 -21 -240 -3 -310
11 -40 11 -56 0 -80 -19 -45 -16 -152 6 -199 23 -49 74 -99 123 -119 22 -10
67 -16 108 -16 l70 0 0 -34 c0 -90 72 -199 168 -255 22 -13 2 -39 -36 -46 -20
-4 -66 -18 -102 -32 -199 -80 -370 -246 -450 -440 -54 -129 -60 -178 -60 -500
l0 -293 -80 0 -80 0 0 -80 0 -80 200 0 200 0 0 -152 0 -153 103 -32 103 -32
22 -78 c35 -123 109 -303 162 -394 l48 -84 -49 -93 c-27 -51 -49 -98 -49 -105
0 -16 521 -537 537 -537 7 0 54 22 105 49 l93 50 65 -39 c86 -52 249 -120 383
-162 l108 -33 32 -102 31 -103 386 0 386 0 32 103 31 104 68 18 c107 28 312
112 404 165 l84 48 93 -49 c51 -27 98 -49 105 -49 18 0 537 522 537 540 -1 8
-23 55 -49 103 l-49 89 49 86 c57 103 130 281 160 393 l22 80 104 31 103 32 0
153 0 153 200 0 200 0 0 80 0 80 -80 0 -80 0 0 293 c0 212 -4 310 -14 358 -55
256 -248 483 -496 582 -36 14 -82 28 -102 32 -38 7 -58 33 -36 46 96 56 168
165 168 255 l0 34 70 0 c41 0 86 6 108 16 49 20 100 70 123 119 22 47 25 154
6 199 -11 24 -10 39 1 80 21 79 12 274 -17 356 -64 183 -211 332 -394 399 -70
25 -78 26 -353 29 -235 3 -292 0 -345 -13 -227 -59 -405 -237 -463 -461 -9
-34 -16 -81 -16 -104 l0 -42 -52 46 c-68 59 -211 131 -312 156 -109 27 -283
27 -392 0 -101 -25 -244 -97 -312 -156 l-52 -46 0 42 c0 58 -26 153 -61 225
-81 166 -237 293 -416 339 -92 24 -573 22 -659 -3z m640 -170 c81 -29 132 -61
189 -118 94 -93 137 -198 137 -331 l0 -85 -182 6 c-257 8 -344 36 -479 153
-80 69 -128 87 -217 82 -55 -3 -79 -10 -118 -34 -56 -34 -103 -103 -111 -163
l-6 -41 -73 0 -74 0 0 83 c0 184 100 343 268 424 94 45 158 53 407 48 172 -3
208 -6 259 -24z m2720 0 c81 -29 132 -61 189 -118 94 -93 137 -198 137 -331
l0 -85 -192 6 c-205 6 -272 17 -376 63 l-62 27 -62 -27 c-104 -46 -171 -57
-375 -63 l-193 -6 0 85 c0 186 100 343 268 425 94 45 158 53 407 48 172 -3
208 -6 259 -24z m-1510 -397 c190 -46 364 -201 436 -387 43 -109 53 -233 48
-577 -4 -267 -6 -289 -27 -343 -28 -72 -100 -163 -127 -160 -34 3 -169 47
-176 58 -12 16 -10 18 37 50 25 17 59 49 75 72 57 79 60 100 60 398 l0 272
-67 7 c-129 13 -155 27 -290 159 l-123 120 -122 -120 c-136 -132 -162 -146
-290 -159 l-68 -7 0 -272 c0 -298 3 -319 60 -398 16 -23 50 -55 75 -72 47 -32
49 -34 37 -50 -7 -11 -142 -55 -176 -58 -27 -3 -98 87 -127 160 -24 57 -24 63
-24 418 0 313 2 368 18 424 95 346 430 548 771 465z m-1636 -128 c44 -35 108
-77 143 -95 73 -35 204 -71 262 -71 l39 0 -4 -177 c-3 -158 -5 -182 -24 -213
-46 -79 -104 -94 -341 -89 -165 5 -198 15 -240 78 -30 44 -35 102 -31 358 3
218 3 222 27 247 42 44 78 36 169 -38z m2926 -132 c44 -14 115 -28 159 -31
l79 -6 -4 -176 c-3 -156 -5 -180 -24 -211 -46 -79 -104 -94 -341 -89 -126 4
-153 7 -182 24 -77 45 -90 90 -91 301 l0 151 78 6 c42 3 111 17 152 31 41 13
80 24 85 25 6 0 46 -11 89 -25z m-3284 -114 l0 -80 -35 0 c-54 0 -103 24 -111
54 -16 64 26 105 109 106 l37 0 0 -80z m1059 69 c19 -7 30 -16 27 -24 -2 -7
-10 -33 -17 -56 -17 -61 -26 -69 -70 -69 l-39 0 0 80 0 80 34 0 c18 0 47 -5
65 -11z m1661 -69 l0 -80 -39 0 c-44 0 -53 8 -70 69 -7 23 -15 49 -17 56 -7
16 38 33 89 34 l37 1 0 -80z m1065 66 c37 -16 52 -48 41 -92 -8 -30 -57 -54
-111 -54 l-35 0 0 80 0 80 35 0 c20 0 51 -6 70 -14z m-1887 -327 c67 -61 139
-104 210 -125 l52 -15 0 -152 c-1 -212 -14 -257 -91 -302 -29 -17 -56 -20
-182 -24 -237 -5 -295 10 -341 89 -19 31 -21 55 -24 212 l-4 177 44 11 c68 18
152 68 215 126 32 29 60 53 62 54 2 0 28 -23 59 -51z m-858 -189 l0 -210 -59
30 c-33 16 -88 37 -123 47 -56 15 -78 27 -78 43 0 3 21 19 45 35 76 51 135
152 135 231 0 33 1 34 40 34 l40 0 0 -210z m1680 176 c0 -79 59 -180 135 -231
24 -16 45 -32 45 -35 0 -16 -22 -28 -78 -43 -35 -10 -90 -31 -123 -47 l-59
-30 0 210 0 210 40 0 c39 0 40 -1 40 -34z m-2093 -341 c37 -137 -31 -255 -147
-255 -131 0 -190 132 -135 298 4 10 36 12 137 10 l132 -3 13 -50z m2714 21 c7
-25 -2 -45 -63 -148 -39 -65 -74 -118 -78 -118 -14 0 -150 238 -145 254 3 9 7
23 10 31 4 13 25 15 137 13 l132 -3 7 -29z m134 -350 c-11 -112 -22 -207 -26
-210 -3 -3 -35 25 -72 62 l-67 67 88 147 c48 80 89 144 92 143 3 -2 -3 -96
-15 -209z m-471 62 l86 -143 -67 -67 c-37 -37 -69 -65 -72 -62 -9 9 -47 414
-39 414 4 0 45 -64 92 -142z m-2836 80 c23 -99 105 -189 203 -223 53 -19 165
-19 218 0 98 34 180 124 203 223 7 29 18 52 26 52 21 0 135 -56 177 -87 34
-26 42 -39 57 -96 22 -86 63 -169 108 -220 l36 -40 -64 -61 c-153 -145 -251
-354 -252 -533 l0 -53 -601 0 -602 0 6 283 c5 310 11 345 71 472 42 91 119
182 202 241 58 42 162 93 189 94 6 0 16 -24 23 -52z m3664 -138 c54 -60 130
-206 148 -285 6 -27 14 -177 17 -332 l6 -283 -602 0 -601 0 0 53 c0 28 -9 89
-20 134 -38 157 -111 284 -232 400 l-65 62 28 27 c39 37 89 136 115 224 19 66
26 79 63 104 22 16 43 27 46 25 2 -3 21 -167 41 -364 19 -198 38 -362 40 -365
3 -2 90 81 194 185 l190 190 190 -190 c104 -104 191 -187 194 -185 4 4 76 696
76 729 0 20 119 -69 172 -129z m-1845 -155 c37 -137 -31 -255 -147 -255 -131
0 -190 132 -135 298 4 10 36 12 137 10 l132 -3 13 -50z m-459 -187 c23 -99
105 -189 203 -223 53 -19 165 -19 218 0 98 34 180 124 203 223 7 28 18 52 25
52 26 0 128 -52 189 -96 147 -104 264 -313 264 -471 l0 -43 -790 0 -790 0 0
43 c0 104 65 264 148 364 57 69 152 140 233 177 77 35 82 34 97 -26z m-1280
-821 c42 -357 192 -673 441 -931 313 -322 701 -486 1151 -486 456 0 843 165
1160 496 243 254 391 569 432 921 l12 103 158 0 158 0 0 -88 0 -88 -96 -30
-96 -29 -28 -110 c-46 -182 -108 -326 -236 -543 l-19 -32 45 -85 45 -85 -182
-182 -182 -182 -85 45 -86 44 -32 -19 c-216 -128 -361 -190 -543 -236 l-110
-28 -29 -96 -30 -96 -256 0 -256 0 -30 96 -29 96 -110 28 c-178 45 -319 104
-481 201 -45 27 -87 49 -94 49 -7 0 -48 -19 -91 -42 l-79 -43 -182 182 -182
182 45 85 44 86 -19 32 c-128 216 -190 361 -236 543 l-28 110 -96 29 -96 30 0
88 0 88 158 0 158 0 12 -103z m477 41 c46 -400 338 -771 715 -909 238 -87 518
-94 751 -18 408 132 714 505 764 932 l7 57 155 0 156 0 -7 -62 c-37 -332 -182
-635 -416 -868 -219 -219 -489 -358 -789 -406 -120 -19 -322 -19 -442 0 -452
73 -853 366 -1059 775 -72 145 -128 333 -146 499 l-7 62 156 0 155 0 7 -62z
m730 14 c7 -23 20 -53 28 -66 15 -22 11 -27 -182 -220 l-197 -196 -55 83 c-31
46 -70 119 -88 161 -29 71 -70 226 -71 269 0 16 18 17 276 15 l277 -3 12 -43z
m591 21 c-38 -73 -121 -123 -206 -123 -85 0 -168 50 -206 123 l-15 27 221 0
221 0 -15 -27z m744 10 c-1 -43 -42 -198 -71 -269 -18 -42 -57 -115 -88 -161
l-55 -83 -196 195 -197 196 24 46 c13 26 23 54 23 63 0 9 3 20 7 23 3 4 129 7
280 7 253 0 273 -1 273 -17z m-1089 -283 l54 -18 3 -276 c2 -258 1 -276 -15
-276 -43 1 -198 42 -269 71 -42 18 -115 57 -161 88 l-83 55 197 198 c142 143
200 194 209 187 7 -5 36 -18 65 -29z m696 -392 c-112 -82 -283 -151 -430 -173
l-47 -7 2 277 3 277 54 19 c30 10 59 23 65 29 7 7 73 -52 208 -187 l197 -197
-52 -38z"/>
</g>
</svg>
