<?xml version="1.0" standalone="no"?>
<!DOCTYPE svg PUBLIC "-//W3C//DTD SVG 20010904//EN"
 "http://www.w3.org/TR/2001/REC-SVG-20010904/DTD/svg10.dtd">
<svg version="1.0" xmlns="http://www.w3.org/2000/svg"
 width="512.000000pt" height="512.000000pt" viewBox="0 0 512.000000 512.000000"
 preserveAspectRatio="xMidYMid meet">
<metadata>
Created by potrace 1.16, written by Peter Selinger 2001-2019
</metadata>
<g transform="translate(0.000000,512.000000) scale(0.100000,-0.100000)"
fill="#000000" stroke="none">
<path d="M2660 5111 c-81 -26 -142 -76 -177 -145 -35 -68 -44 -204 -19 -271
36 -93 141 -157 281 -171 91 -9 266 -42 395 -74 533 -133 879 -387 1083 -796
127 -253 194 -516 237 -933 21 -210 132 -311 324 -299 114 8 196 59 242 155
25 50 28 69 32 188 21 622 -217 1220 -668 1676 -346 350 -758 568 -1235 655
-100 18 -454 29 -495 15z m450 -226 c263 -43 566 -164 795 -318 109 -74 249
-193 353 -301 296 -308 482 -670 562 -1091 17 -90 31 -437 19 -480 -13 -46
-48 -69 -93 -61 -56 11 -68 34 -77 148 -16 188 -60 431 -110 602 -154 528
-462 904 -919 1120 -223 105 -573 200 -855 231 -33 4 -75 13 -94 21 -33 14
-33 15 -28 61 4 36 12 53 33 72 28 24 30 24 174 18 80 -4 188 -13 240 -22z"/>
<path d="M878 4864 c-36 -8 -106 -30 -155 -50 -479 -192 -725 -598 -648 -1071
20 -123 54 -226 135 -413 323 -744 740 -1361 1291 -1910 618 -617 1246 -1047
1900 -1298 257 -98 333 -117 474 -116 111 0 128 3 229 38 411 139 752 513 806
884 27 185 -49 364 -216 507 -122 105 -558 427 -694 513 -191 120 -384 166
-552 131 -77 -16 -184 -69 -253 -126 -33 -27 -95 -94 -138 -148 -124 -160
-142 -162 -362 -55 -225 109 -396 232 -564 403 -153 157 -246 291 -348 502
-54 113 -57 124 -58 196 0 68 3 79 29 113 15 21 70 69 121 106 109 81 169 146
212 226 91 172 81 329 -37 563 -151 302 -478 726 -685 891 -144 114 -307 153
-487 114z m233 -215 c55 -14 117 -60 222 -166 244 -247 541 -691 592 -885 15
-57 7 -136 -20 -188 -26 -50 -83 -107 -187 -187 -157 -120 -210 -211 -209
-359 0 -114 23 -194 99 -349 198 -405 573 -764 1015 -976 277 -132 437 -100
591 116 55 76 141 156 199 184 77 37 145 45 233 27 118 -23 212 -77 490 -279
490 -356 552 -419 562 -573 15 -236 -254 -579 -571 -730 -76 -35 -210 -74
-259 -74 -131 0 -584 177 -901 351 -455 251 -867 568 -1308 1009 -543 541
-944 1135 -1252 1851 -88 203 -113 283 -126 399 -36 324 124 599 444 757 168
84 265 102 386 72z"/>
<path d="M1043 2755 c-65 -28 -71 -96 -17 -192 41 -75 72 -98 128 -97 31 1 46
8 68 33 39 44 37 88 -8 168 -52 94 -101 119 -171 88z"/>
<path d="M1321 2294 c-38 -32 -50 -84 -28 -128 19 -39 139 -188 259 -323 171
-194 472 -473 692 -642 69 -54 84 -61 123 -61 84 0 131 85 87 158 -9 15 -48
52 -87 82 -287 222 -614 544 -831 820 -37 47 -79 93 -94 102 -39 26 -85 23
-121 -8z"/>
<path d="M2602 4371 c-117 -40 -182 -133 -190 -270 -10 -179 81 -288 268 -322
109 -20 339 -79 408 -105 295 -111 454 -281 540 -579 26 -89 59 -255 72 -367
16 -135 54 -206 133 -252 65 -38 135 -50 214 -36 114 19 182 69 224 165 44 97
35 391 -17 590 -70 271 -205 500 -418 710 -269 266 -560 408 -948 465 -164 24
-218 25 -286 1z m273 -217 c399 -58 730 -257 968 -582 160 -218 237 -458 237
-736 0 -133 -2 -148 -20 -166 -14 -14 -33 -20 -65 -20 -58 0 -72 21 -85 131
-23 186 -68 372 -122 508 -148 373 -437 575 -973 682 -161 32 -195 49 -195 98
0 40 32 95 60 102 27 8 35 7 195 -17z"/>
<path d="M2647 3629 c-142 -21 -227 -97 -263 -234 -18 -65 -17 -100 1 -162 32
-107 116 -167 284 -204 103 -23 157 -48 206 -96 49 -48 72 -101 95 -222 21
-111 52 -180 102 -228 110 -105 306 -103 411 5 119 122 123 401 10 627 -95
189 -283 371 -469 456 -116 53 -263 76 -377 58z m236 -233 c208 -74 407 -289
463 -501 19 -68 18 -198 -1 -234 -16 -32 -33 -41 -75 -41 -45 0 -76 46 -90
132 -24 149 -63 238 -145 326 -68 74 -158 120 -305 157 -58 15 -113 34 -122
42 -38 34 -13 110 42 132 48 19 160 12 233 -13z"/>
</g>
</svg>
